<svg width="375.895068359375px" height="121.426220703125px" xmlns="http://www.w3.org/2000/svg" viewBox="62.052465820312506 14.286889648437501 375.895068359375 121.426220703125" style="background: rgba(0, 0, 0, 0);" preserveAspectRatio="xMidYMid"><defs><filter id="editing-hole" x="-100%" y="-100%" width="300%" height="300%"><feFlood flood-color="#000" result="black"></feFlood><feMorphology operator="dilate" radius="2" in="SourceGraphic" result="erode"></feMorphology><feGaussianBlur in="erode" stdDeviation="4" result="blur"></feGaussianBlur><feOffset in="blur" dx="2" dy="2" result="offset"></feOffset><feComposite operator="atop" in="offset" in2="black" result="merge"></feComposite><feComposite operator="in" in="merge" in2="SourceGraphic" result="inner-shadow"></feComposite></filter></defs><g filter="url(#editing-hole)"><g transform="translate(119.85500791668892, 98.21906280517578)"><path d="M0.45-0.32L0.45-0.32L8.51-42.24L8.51-42.24Q16.06-42.88 20.93-42.88L20.93-42.88L20.93-42.88Q25.79-42.88 28.93-42.46L28.93-42.46L28.93-42.46Q32.06-42.05 34.18-40.96L34.18-40.96L34.18-40.96Q38.40-38.91 38.40-33.28L38.40-33.28L38.40-33.28Q38.40-30.02 35.58-27.26L35.58-27.26L35.58-27.26Q32.96-24.77 30.08-24.19L30.08-24.19L30.08-24.19Q33.15-23.68 35.33-21.38L35.33-21.38L35.33-21.38Q37.63-18.94 37.63-15.17L37.63-15.17L37.63-15.17Q37.63-7.87 32.19-3.62L32.19-3.62L32.19-3.62Q26.75 0.64 16.06 0.64L16.06 0.64L16.06 0.64Q8.70 0.64 0.45-0.32ZM17.86-20.61L14.66-4.03L14.66-4.03Q15.23-3.97 15.36-3.97L15.36-3.97L15.94-3.97L15.94-3.97Q21.18-3.97 23.42-7.42L23.42-7.42L23.42-7.42Q25.09-10.11 25.09-15.04L25.09-15.04L25.09-15.04Q25.09-17.66 23.39-19.07L23.39-19.07L23.39-19.07Q21.70-20.48 17.86-20.61L17.86-20.61ZM27.58-33.22L27.58-33.22L27.58-33.22Q27.58-38.53 22.46-38.53L22.46-38.53L21.89-38.53L21.89-38.53Q21.63-38.53 21.25-38.46L21.25-38.46L18.69-24.96L19.33-24.96L19.33-24.96Q27.58-25.15 27.58-33.22ZM55.81 1.28L55.81 1.28L55.81 1.28Q41.73 1.28 41.73-11.97L41.73-11.97L41.73-11.97Q41.73-21.38 46.91-27.46L46.91-27.46L46.91-27.46Q52.42-33.92 61.95-33.92L61.95-33.92L61.95-33.92Q68.86-33.92 72.38-30.72L72.38-30.72L72.38-30.72Q75.90-27.52 75.90-20.80L75.90-20.80L75.90-20.80Q75.90-10.56 70.40-4.61L70.40-4.61L70.40-4.61Q65.02 1.28 55.81 1.28ZM57.47-26.56L57.47-26.56L57.47-26.56Q56.70-24.83 56.10-22.24L56.10-22.24L56.10-22.24Q55.49-19.65 54.72-15.55L54.72-15.55L54.72-15.55Q53.95-11.46 53.95-6.40L53.95-6.40L53.95-6.40Q53.95-4.74 54.50-3.65L54.50-3.65L54.50-3.65Q55.04-2.56 56.51-2.56L56.51-2.56L56.51-2.56Q57.98-2.56 58.91-3.26L58.91-3.26L58.91-3.26Q59.84-3.97 60.54-5.63L60.54-5.63L60.54-5.63Q61.82-8.58 62.85-14.05L62.85-14.05L62.85-14.05Q63.87-19.52 63.97-21.89L63.97-21.89L63.97-21.89Q64.06-24.26 64.06-26.02L64.06-26.02L64.06-26.02Q64.06-27.78 63.55-28.93L63.55-28.93L63.55-28.93Q63.04-30.08 61.60-30.08L61.60-30.08L61.60-30.08Q60.16-30.08 59.20-29.18L59.20-29.18L59.20-29.18Q58.24-28.29 57.47-26.56ZM106.75 1.28L106.75 1.28L106.75 1.28Q99.01 1.28 99.01-4.74L99.01-4.74L99.01-4.74Q99.07-6.40 99.58-9.22L99.58-9.22L100.74-15.10L100.74-15.10Q102.46-23.42 102.46-25.28L102.46-25.28L102.46-25.28Q102.46-28.99 100.29-28.99L100.29-28.99L100.29-28.99Q96.64-28.99 94.72-19.46L94.72-19.46L90.94 0L78.08 1.28L84.74-32.70L95.23-33.92L94.21-27.65L94.21-27.65Q97.22-33.92 106.43-33.92L106.43-33.92L106.43-33.92Q110.91-33.92 112.80-32.03L112.80-32.03L112.80-32.03Q114.69-30.14 114.69-25.92L114.69-25.92L114.69-25.92Q114.69-21.95 112.64-12.67L112.64-12.67L112.64-12.67Q111.68-8.51 111.68-6.94L111.68-6.94L111.68-6.94Q111.68-5.38 112.54-4.48L112.54-4.48L112.54-4.48Q113.41-3.58 114.69-3.46L114.69-3.46L114.69-3.46Q114.05-1.28 111.84 0L111.84 0L111.84 0Q109.63 1.28 106.75 1.28ZM139.84-17.98L139.84-17.98L139.84-17.98Q142.14-22.08 142.14-26.24L142.14-26.24L142.14-26.24Q142.14-28.99 140.16-28.99L140.16-28.99L140.16-28.99Q138.62-28.99 137.02-26.37L137.02-26.37L137.02-26.37Q135.36-23.74 134.85-20.35L134.85-20.35L131.52 0L118.27 1.28L124.80-32.64L135.36-33.92L134.21-27.46L134.21-27.46Q137.34-33.92 144.38-33.92L144.38-33.92L144.38-33.92Q148.10-33.92 150.11-32L150.11-32L150.11-32Q152.13-30.08 152.13-26.14L152.13-26.14L152.13-26.14Q152.13-22.21 149.54-19.71L149.54-19.71L149.54-19.71Q146.94-17.22 142.53-17.22L142.53-17.22L142.53-17.22Q140.61-17.22 139.84-17.98ZM167.10 1.28L167.10 1.28L167.10 1.28Q153.02 1.28 153.02-11.97L153.02-11.97L153.02-11.97Q153.02-21.38 158.21-27.46L158.21-27.46L158.21-27.46Q163.71-33.92 173.25-33.92L173.25-33.92L173.25-33.92Q180.16-33.92 183.68-30.72L183.68-30.72L183.68-30.72Q187.20-27.52 187.20-20.80L187.20-20.80L187.20-20.80Q187.20-10.56 181.70-4.61L181.70-4.61L181.70-4.61Q176.32 1.28 167.10 1.28ZM168.77-26.56L168.77-26.56L168.77-26.56Q168-24.83 167.39-22.24L167.39-22.24L167.39-22.24Q166.78-19.65 166.02-15.55L166.02-15.55L166.02-15.55Q165.25-11.46 165.25-6.40L165.25-6.40L165.25-6.40Q165.25-4.74 165.79-3.65L165.79-3.65L165.79-3.65Q166.34-2.56 167.81-2.56L167.81-2.56L167.81-2.56Q169.28-2.56 170.21-3.26L170.21-3.26L170.21-3.26Q171.14-3.97 171.84-5.63L171.84-5.63L171.84-5.63Q173.12-8.58 174.14-14.05L174.14-14.05L174.14-14.05Q175.17-19.52 175.26-21.89L175.26-21.89L175.26-21.89Q175.36-24.26 175.36-26.02L175.36-26.02L175.36-26.02Q175.36-27.78 174.85-28.93L174.85-28.93L174.85-28.93Q174.34-30.08 172.90-30.08L172.90-30.08L172.90-30.08Q171.46-30.08 170.50-29.18L170.50-29.18L170.50-29.18Q169.54-28.29 168.77-26.56ZM222.40-26.62L222.40-26.62L222.40-26.62Q222.40-23.94 220.16-22.27L220.16-22.27L220.16-22.27Q217.92-20.61 214.27-20.61L214.27-20.61L214.27-20.61Q212.74-20.61 211.84-21.06L211.84-21.06L211.84-21.06Q212.54-22.72 212.77-24.80L212.77-24.80L212.77-24.80Q212.99-26.88 212.99-27.46L212.99-27.46L212.99-27.46Q212.99-30.14 211.14-30.14L211.14-30.14L211.14-30.14Q209.86-30.14 208.42-28.54L208.42-28.54L208.42-28.54Q206.98-26.94 205.76-24.45L205.76-24.45L205.76-24.45Q203.07-18.69 203.07-12.86L203.07-12.86L203.07-12.86Q203.07-9.66 204.29-8.22L204.29-8.22L204.29-8.22Q205.50-6.78 208.19-6.78L208.19-6.78L208.19-6.78Q211.90-6.78 214.85-9.86L214.85-9.86L214.85-9.86Q215.68-10.82 216.13-11.90L216.13-11.90L216.13-11.90Q218.56-10.62 218.56-7.10L218.56-7.10L218.56-7.10Q218.56-3.52 214.59-1.15L214.59-1.15L214.59-1.15Q210.50 1.28 203.97 1.28L203.97 1.28L203.97 1.28Q190.98 1.28 190.98-12.48L190.98-12.48L190.98-12.48Q190.98-22.53 196.67-28.29L196.67-28.29L196.67-28.29Q202.18-33.92 212.29-33.92L212.29-33.92L212.29-33.92Q222.40-33.92 222.40-26.62ZM240.64-30.34L240.64-30.34L240.64-30.34Q244.10-33.92 251.39-33.92L251.39-33.92L251.39-33.92Q255.42-33.92 257.63-31.78L257.63-31.78L257.63-31.78Q259.84-29.63 259.84-25.70L259.84-25.70L259.84-25.70Q259.84-21.76 257.63-18.98L257.63-18.98L257.63-18.98Q255.42-16.19 251.33-15.04L251.33-15.04L251.33-15.04Q251.65-13.76 252.10-12.42L252.10-12.42L252.99-9.86L252.99-9.86Q254.21-6.59 255.17-5.44L255.17-5.44L255.17-5.44Q256.13-4.29 257.41-3.90L257.41-3.90L257.41-3.90Q256.70-1.28 254.14 0.13L254.14 0.13L254.14 0.13Q252.10 1.28 249.28 1.28L249.28 1.28L249.28 1.28Q241.02 1.28 239.94-11.46L239.94-11.46L239.94-11.46Q239.74-13.25 239.74-15.04L239.74-15.04L239.74-15.04Q242.94-15.94 245.18-18.94L245.18-18.94L245.18-18.94Q247.42-21.95 247.42-25.47L247.42-25.47L247.42-25.47Q247.42-28.99 244.93-28.99L244.93-28.99L244.93-28.99Q243.14-28.99 241.73-27.01L241.73-27.01L241.73-27.01Q240.32-25.02 239.68-21.63L239.68-21.63L235.46 0L222.53 1.28L231.49-44.80L244.35-46.08L242.88-38.46L242.88-38.46Q241.92-33.09 240.64-30.34Z" fill="#ccc"></path></g></g><style>text {
  font-size: 64px;
  font-family: Arial Black;
  dominant-baseline: central;
  text-anchor: middle;
}</style></svg>